<?xml version="1.0" standalone="no"?>
<!DOCTYPE svg PUBLIC "-//W3C//DTD SVG 20010904//EN"
 "http://www.w3.org/TR/2001/REC-SVG-20010904/DTD/svg10.dtd">
<svg version="1.0" xmlns="http://www.w3.org/2000/svg"
 width="700.000000pt" height="700.000000pt" viewBox="0 0 700.000000 700.000000"
 preserveAspectRatio="xMidYMid meet">
<metadata>
Created by potrace 1.11, written by Peter Selinger 2001-2013
</metadata>
<g transform="translate(0.000000,700.000000) scale(0.100000,-0.100000)"
fill="#000000" stroke="none">
<path d="M915 6989 c-231 -26 -431 -125 -605 -299 -178 -178 -272 -371 -300
-615 -14 -124 -14 -5026 0 -5150 28 -244 122 -437 300 -615 112 -112 208 -177
336 -229 172 -69 270 -81 667 -81 l297 0 0 873 c0 684 -3 877 -12 889 -22 27
-320 250 -387 289 -35 21 -150 75 -255 121 -409 177 -674 324 -807 446 l-51
47 16 131 c24 192 46 307 112 589 43 181 58 221 167 450 47 99 96 212 110 250
56 156 84 205 257 445 133 185 145 209 165 320 26 148 23 230 -14 304 -17 34
-48 84 -69 111 -34 45 -42 50 -78 50 -21 0 -60 -4 -85 -8 l-46 -8 -12 43 c-87
321 -104 436 -82 562 27 154 142 292 316 376 106 52 197 72 320 73 270 0 462
-130 604 -409 63 -122 63 -137 0 -209 -48 -55 -51 -62 -45 -100 22 -152 28
-262 24 -446 l-5 -206 162 34 162 33 119 -76 c129 -82 264 -153 360 -190 l62
-23 82 235 c94 267 95 225 -7 336 l-53 57 0 103 c0 118 15 180 59 249 29 46
29 47 75 42 l46 -6 0 612 0 611 -917 -1 c-505 -1 -949 -5 -988 -10z"/>
<path d="M2967 6708 c-4 -161 -7 -446 -7 -633 l0 -340 36 -20 c67 -36 101 -92
150 -247 14 -42 55 -146 93 -230 68 -152 101 -237 101 -262 0 -18 -39 -52 -81
-69 -36 -15 -37 -16 -48 -93 -6 -44 -22 -201 -36 -350 -24 -268 -49 -424 -84
-526 -16 -46 -22 -53 -42 -51 -13 2 -101 42 -196 90 -190 96 -183 96 -225 22
-25 -44 -36 -46 -95 -19 -24 10 -43 15 -43 10 0 -21 55 -180 89 -259 63 -146
254 -502 334 -622 42 -63 97 -138 123 -168 l48 -54 100 7 c153 9 250 29 584
122 459 127 557 151 673 168 188 28 397 17 479 -24 55 -28 120 -105 189 -223
54 -91 105 -154 330 -405 146 -163 364 -408 484 -544 209 -237 221 -248 270
-263 60 -18 171 -34 239 -35 42 0 48 3 68 35 36 59 69 155 90 264 11 58 22
106 24 108 2 2 39 9 83 15 72 10 83 10 119 -8 26 -13 46 -32 59 -59 18 -37 20
-60 20 -270 l0 -230 -136 -230 c-75 -127 -155 -262 -178 -302 -36 -63 -97
-129 -141 -153 -25 -13 -196 132 -607 517 -191 179 -232 203 -478 282 -174 55
-279 101 -338 149 -60 48 -179 184 -284 324 -71 94 -101 128 -117 128 -12 -1
-59 -6 -106 -13 l-85 -13 -6 -169 c-3 -94 -9 -198 -14 -231 l-7 -61 -162 -7
c-88 -4 -212 -11 -274 -17 -62 -5 -206 -14 -320 -19 -114 -5 -232 -14 -263
-20 -30 -6 -142 -42 -247 -80 -202 -74 -343 -111 -483 -130 -101 -13 -141 -3
-259 66 -75 44 -260 212 -332 303 l-36 45 -26 -52 c-26 -51 -89 -104 -193
-163 l-43 -24 0 -837 0 -838 2113 0 c1371 0 2144 4 2202 10 244 28 437 122
615 300 178 178 272 371 300 615 14 124 14 5026 0 5150 -28 244 -122 437 -300
615 -178 178 -371 272 -615 300 -57 6 -637 10 -1596 10 l-1506 0 -6 -292z"/>
<path d="M2812 4887 c-34 -98 -65 -202 -68 -231 l-6 -52 58 -69 59 -69 13 74
c16 96 26 421 15 480 l-9 45 -62 -178z"/>
<path d="M1010 3377 c-13 -48 -28 -87 -33 -87 -5 0 -27 10 -48 22 -21 12 -40
20 -42 17 -2 -2 -30 -51 -62 -109 -43 -77 -78 -124 -131 -177 l-72 -72 201
-153 c201 -153 370 -286 460 -361 46 -39 48 -40 86 -29 73 22 111 16 244 -42
28 -12 37 -13 31 -4 -4 7 -47 72 -96 145 -129 194 -393 626 -439 718 -22 44
-48 112 -57 149 l-18 69 -24 -86z"/>
</g>
</svg>
