<?xml version="1.0" standalone="no"?>
<!DOCTYPE svg PUBLIC "-//W3C//DTD SVG 20010904//EN"
 "http://www.w3.org/TR/2001/REC-SVG-20010904/DTD/svg10.dtd">
<svg version="1.0" xmlns="http://www.w3.org/2000/svg"
 width="700.000000pt" height="700.000000pt" viewBox="0 0 700.000000 700.000000"
 preserveAspectRatio="xMidYMid meet">
<metadata>
Created by potrace 1.11, written by Peter Selinger 2001-2013
</metadata>
<g transform="translate(0.000000,700.000000) scale(0.100000,-0.100000)"
fill="#000000" stroke="none">
<path d="M2822 6878 c0 -68 -1 -343 -1 -612 l-1 -489 -45 5 c-42 5 -45 4 -71
-33 -45 -65 -57 -115 -60 -239 -1 -63 2 -122 6 -130 5 -8 36 -43 69 -77 34
-34 61 -68 61 -76 0 -8 -11 -43 -24 -78 -13 -35 -45 -125 -70 -199 -26 -74
-52 -147 -57 -162 l-11 -26 -55 19 c-105 36 -389 193 -465 257 -14 12 -26 12
-90 -3 -40 -9 -107 -23 -148 -31 -41 -8 -82 -17 -90 -19 -13 -4 -15 27 -14
248 1 228 -9 367 -31 424 -2 7 20 41 50 76 30 35 55 72 55 82 0 27 -73 175
-121 246 -72 107 -153 181 -249 227 -47 22 -112 46 -145 53 -57 11 -217 15
-260 5 -134 -30 -235 -73 -315 -137 -56 -44 -120 -109 -120 -121 0 -4 -6 -13
-14 -20 -28 -29 -54 -95 -65 -169 -20 -130 -4 -252 66 -502 27 -93 29 -97 53
-92 14 2 45 7 70 11 24 3 48 8 52 10 9 6 42 -30 84 -94 56 -84 77 -140 78
-207 0 -59 -10 -161 -18 -173 -2 -4 -7 -29 -10 -56 -8 -53 -44 -115 -180 -301
-124 -170 -168 -248 -230 -405 -32 -80 -85 -201 -118 -270 -93 -191 -116 -253
-154 -405 -19 -77 -36 -149 -39 -160 -17 -82 -45 -228 -50 -265 -4 -24 -8 -47
-10 -50 -2 -3 -6 -30 -10 -60 -8 -80 -15 -140 -21 -181 -5 -38 -2 -41 101
-128 108 -90 413 -253 735 -391 80 -34 183 -82 230 -106 113 -59 421 -294 435
-332 6 -19 10 -339 10 -885 l0 -857 70 0 70 0 0 831 c0 457 2 834 5 838 3 5
25 20 50 36 121 74 153 101 183 154 l31 55 30 -39 c36 -46 178 -188 246 -246
83 -71 200 -128 269 -132 102 -6 282 35 519 119 306 109 284 105 617 119 77 3
158 7 180 10 111 12 204 17 349 20 159 3 159 3 163 26 2 13 5 38 8 54 3 17 8
109 11 205 4 96 9 178 13 182 3 3 33 9 66 13 57 6 90 12 126 21 10 3 27 -14
50 -48 52 -81 202 -265 284 -348 87 -90 179 -141 335 -189 145 -45 216 -70
275 -97 93 -42 115 -60 405 -334 25 -23 83 -77 129 -119 47 -42 94 -85 106
-96 12 -11 66 -57 121 -102 l101 -82 54 43 c41 33 69 68 118 152 35 60 113
192 173 293 60 101 113 203 118 225 10 45 7 403 -4 451 -15 66 -50 94 -120
100 -44 4 -135 -12 -149 -25 -5 -4 -15 -41 -22 -81 -25 -134 -54 -226 -91
-282 l-25 -38 -72 2 c-83 3 -140 12 -217 35 -45 13 -63 26 -98 68 -23 28 -54
65 -70 81 -15 17 -61 68 -101 115 -41 47 -87 99 -102 115 -15 17 -72 80 -125
140 -90 102 -229 257 -264 295 -8 9 -49 54 -90 101 -41 46 -94 104 -117 129
-24 25 -73 96 -109 158 -111 187 -172 241 -294 261 -66 10 -313 8 -385 -4 -84
-14 -226 -48 -375 -90 -473 -133 -612 -170 -690 -181 -19 -3 -42 -7 -50 -10
-8 -3 -65 -8 -125 -11 l-111 -6 -46 52 c-60 67 -175 235 -232 342 -112 208
-258 512 -286 597 -38 118 -38 125 -2 107 15 -7 41 -16 58 -20 30 -6 33 -3 54
39 12 25 30 48 40 51 13 4 51 -10 107 -40 141 -73 253 -125 276 -128 18 -2 24
9 44 73 25 83 59 274 68 390 3 41 8 91 10 110 2 19 7 76 10 125 4 50 8 101 10
115 2 14 7 50 11 80 3 30 8 64 9 75 2 11 4 24 4 28 1 4 21 16 45 27 25 10 52
30 61 44 16 24 16 29 -1 78 -9 29 -46 117 -81 195 -35 78 -81 194 -103 258
-22 64 -52 133 -65 154 -25 37 -75 81 -94 81 -5 0 -12 8 -14 18 -3 9 -5 297
-4 640 l2 622 -71 0 -71 0 -1 -122z m64 -1884 c11 -112 4 -380 -10 -403 -2 -3
-7 -31 -11 -61 -7 -52 -11 -68 -18 -59 -2 2 -26 32 -55 65 -58 69 -61 84 -37
179 16 62 118 355 122 351 2 -2 6 -34 9 -72z m-1840 -1570 c17 -99 59 -186
222 -449 58 -93 110 -179 116 -190 19 -33 64 -102 168 -259 55 -81 97 -150 95
-152 -2 -2 -35 10 -73 28 -77 36 -170 46 -213 23 -24 -12 -29 -10 -76 28 -27
23 -52 44 -55 47 -9 10 -271 214 -444 345 l-169 128 24 20 c13 11 33 27 44 36
35 28 91 104 131 176 79 145 69 136 120 104 19 -11 38 -18 42 -15 5 3 19 42
32 86 13 44 25 79 27 76 2 -2 6 -16 9 -32z"/>
</g>
</svg>
